<svg width="26" height="26" viewBox="0 0 26 26" fill="none" xmlns="http://www.w3.org/2000/svg">
<g id="akar-icons:dashboard">
<path id="Vector" d="M2.16669 5.41667C2.16669 4.84203 2.39496 4.29093 2.80129 3.8846C3.20762 3.47827 3.75872 3.25 4.33335 3.25H10.8334V22.75H4.33335C3.75872 22.75 3.20762 22.5217 2.80129 22.1154C2.39496 21.7091 2.16669 21.158 2.16669 20.5833V5.41667ZM15.1667 3.25H21.6667C22.2413 3.25 22.7924 3.47827 23.1987 3.8846C23.6051 4.29093 23.8334 4.84203 23.8334 5.41667V10.8333H15.1667V3.25ZM15.1667 15.1667H23.8334V20.5833C23.8334 21.158 23.6051 21.7091 23.1987 22.1154C22.7924 22.5217 22.2413 22.75 21.6667 22.75H15.1667V15.1667Z" stroke="#242223" stroke-width="2.08333" stroke-linecap="round" stroke-linejoin="round"/>
</g>
</svg>
